<svg xmlns="http://www.w3.org/2000/svg" width="32" height="32" viewBox="0 0 1024 1024">
    <g>
        <path
            d="M 515.22 488.14 C513.42,489.16 511.84,489.99 511.72,489.99 C511.60,489.98 505.18,486.27 497.46,481.74 C457.55,458.33 436.80,440.51 427.47,421.67 C419.32,405.22 419.68,408.63 419.26,343.43 L 418.88 285.36 L 426.19 283.54 C461.71,274.74 500.69,270.83 531.89,272.94 C556.20,274.59 580.53,278.49 601.25,284.07 L 605.12 285.11 L 604.45 403.50 L 601.84 410.69 C600.41,414.64 597.64,420.72 595.69,424.19 C584.61,443.87 562.87,461.15 515.22,488.14 ZM 501.00 473.87 C506.77,477.21 511.62,479.95 511.76,479.97 C512.84,480.10 537.66,465.24 546.50,459.17 C561.37,448.96 570.42,441.50 578.44,432.84 C586.30,424.36 589.24,419.63 592.84,409.73 L 595.47 402.50 L 595.78 347.48 L 596.09 292.46 L 591.30 291.18 C588.66,290.47 584.92,289.47 583.00,288.96 C574.92,286.80 548.35,283.00 541.40,283.00 C539.07,283.00 537.00,282.49 536.79,281.86 C536.28,280.33 494.16,280.14 493.18,281.67 C492.80,282.24 488.00,282.98 482.50,283.30 C471.92,283.93 448.54,287.71 436.00,290.81 L 428.50 292.67 L 428.50 346.59 C428.50,400.14 428.52,400.55 430.79,407.34 C435.33,420.87 443.26,431.89 457.02,443.76 C466.48,451.92 485.08,464.66 501.00,473.87 ZM 746.11 640.99 C736.98,642.71 726.26,642.16 718.50,639.59 C709.92,636.74 707.75,635.58 701.62,630.55 C692.39,622.98 687.16,612.04 686.28,598.50 C685.56,587.41 687.21,578.27 691.65,568.82 C696.22,559.08 702.21,553.27 713.00,548.12 C719.82,544.86 721.45,544.50 730.93,544.15 C740.53,543.79 749.81,544.94 753.95,547.01 C754.80,547.43 757.25,548.62 759.39,549.64 C766.30,552.94 773.68,560.56 777.49,568.34 C781.63,576.77 783.00,583.30 782.99,594.39 C782.97,609.06 778.85,619.02 768.85,628.57 C761.78,635.33 754.21,639.46 746.11,640.99 ZM 480.96 413.54 C480.00,414.70 476.62,415.00 464.38,415.00 L 449.00 415.00 L 449.00 412.00 C449.00,409.44 449.38,409.00 451.58,409.00 C453.06,409.00 455.33,407.82 456.92,406.23 C460.13,403.02 460.35,401.22 461.99,364.00 C462.54,351.62 463.25,338.78 463.59,335.45 C464.43,327.02 462.43,322.40 457.02,320.28 C454.46,319.27 453.00,318.06 453.00,316.95 C453.00,315.38 454.47,315.15 466.75,314.80 C474.31,314.58 480.98,314.55 481.57,314.74 C482.83,315.13 483.40,316.42 504.71,367.00 C511.14,382.24 513.15,386.25 513.95,385.37 C514.83,384.39 541.25,322.69 543.33,316.75 C543.87,315.19 545.51,315.00 558.04,315.00 C570.94,315.00 572.12,315.15 571.81,316.75 C571.63,317.71 570.01,318.98 568.22,319.56 C566.72,320.04 565.56,320.38 564.67,321.07 C561.65,323.44 561.86,329.93 562.85,360.59 L 562.92 362.81 C563.58,383.47 564.38,401.65 564.69,403.22 C565.38,406.64 569.35,410.00 572.70,410.00 C574.66,410.00 575.08,410.45 574.82,412.25 C574.50,414.49 574.42,414.50 556.00,414.50 C537.89,414.50 537.49,414.46 537.20,412.37 C536.95,410.65 537.55,410.12 540.29,409.61 C545.21,408.68 548.04,405.21 548.21,399.90 C548.52,390.55 545.92,335.52 545.14,334.74 C544.30,333.90 542.37,338.12 531.77,364.00 C528.50,371.98 525.22,379.85 524.47,381.50 C523.73,383.15 520.59,390.56 517.50,397.97 C514.41,405.38 511.40,412.02 510.82,412.72 C508.38,415.65 506.42,414.01 503.09,406.25 C490.67,377.36 473.52,339.26 472.37,338.04 C471.20,336.78 471.00,337.44 471.00,342.54 C471.00,345.82 470.50,360.20 469.89,374.51 C468.55,405.67 468.84,407.18 476.45,409.09 C481.64,410.40 482.70,411.45 480.96,413.54 ZM 406.60 639.91 C405.74,640.63 402.37,640.97 397.85,640.79 C383.88,640.26 378.98,635.99 365.78,612.85 C358.71,600.45 356.45,597.61 354.32,598.43 C353.50,598.74 351.52,599.00 349.92,599.00 L 347.00 599.00 L 347.00 614.10 C347.00,627.75 347.20,629.47 349.07,632.10 C350.26,633.77 352.06,635.01 353.32,635.02 C356.47,635.04 358.39,636.54 357.67,638.42 C357.12,639.85 354.87,640.01 338.77,639.77 C324.11,639.55 320.50,639.23 320.50,638.13 C320.50,637.38 322.03,636.25 323.91,635.63 C330.99,633.28 330.91,633.75 331.11,592.80 C331.32,552.43 331.22,551.74 325.24,550.43 C320.54,549.40 320.00,549.11 320.00,547.53 C320.00,546.20 323.13,546.00 344.25,546.02 C368.90,546.03 371.37,546.33 378.50,550.20 C393.10,558.12 395.25,577.30 382.79,588.50 C380.02,590.99 376.69,593.29 375.38,593.62 C374.07,593.95 373.00,594.56 373.00,594.98 C373.00,596.16 383.86,613.65 390.22,622.71 C396.61,631.81 401.38,636.00 405.34,636.00 C408.25,636.00 408.90,638.01 406.60,639.91 ZM 886.13 639.93 C883.85,641.15 874.16,641.19 869.12,640.00 C860.82,638.04 853.25,629.13 841.14,607.07 C838.74,602.70 836.21,598.91 835.51,598.64 C834.82,598.38 832.39,598.41 830.12,598.71 L 826.00 599.26 L 826.00 614.91 C826.00,632.91 826.49,634.34 833.03,635.39 C836.20,635.90 837.06,636.44 836.81,637.77 C836.50,639.33 834.70,639.50 818.00,639.50 C801.44,639.50 799.49,639.32 799.20,637.81 C798.96,636.57 799.81,635.94 802.37,635.46 C809.67,634.09 809.47,635.27 809.78,592.58 C810.06,555.50 810.01,554.32 808.07,552.57 C806.98,551.58 804.60,550.46 802.80,550.09 C800.85,549.69 799.38,548.72 799.18,547.71 C798.88,546.13 800.76,546.00 823.18,546.02 C846.33,546.05 847.77,546.16 853.17,548.38 C863.88,552.79 868.89,558.63 869.70,567.69 C870.71,578.88 866.62,586.37 856.38,592.16 L 851.14 595.11 L 853.25 598.81 C859.32,609.43 874.36,631.12 876.91,632.93 C878.52,634.08 881.21,635.29 882.89,635.63 C887.17,636.48 888.72,638.55 886.13,639.93 ZM 728.98 635.71 C734.60,637.63 743.95,636.69 748.65,633.72 C759.69,626.75 765.07,615.33 765.81,597.27 C766.33,584.41 764.28,575.08 758.91,565.85 C752.13,554.22 744.86,550.00 731.62,550.00 C723.14,550.01 719.76,551.24 714.15,556.35 C710.91,559.32 706.00,569.30 704.26,576.50 C702.28,584.62 702.42,598.18 704.54,605.55 C709.04,621.17 717.69,631.84 728.98,635.71 ZM 118.50 637.50 C118.50,639.40 117.74,639.51 103.87,639.78 C92.71,639.99 89.12,639.75 88.76,638.78 C87.94,636.54 89.09,635.00 91.58,635.00 C94.44,635.00 97.76,631.98 98.42,628.78 C99.01,625.88 100.77,595.64 101.63,573.30 C102.40,553.66 101.89,551.76 95.56,550.58 C92.90,550.08 92.00,549.41 92.00,547.93 C92.00,546.03 92.61,545.96 105.56,546.22 L 119.12 546.50 L 123.94 557.50 C130.74,573.00 140.67,596.10 144.50,605.29 C146.29,609.58 148.01,613.34 148.33,613.66 C148.83,614.16 152.84,606.33 155.07,600.50 C155.49,599.40 157.52,594.45 159.59,589.50 C161.65,584.55 164.12,578.47 165.07,576.00 C168.31,567.57 174.78,551.51 176.05,548.75 L 177.32 546.00 L 189.60 546.00 C196.36,546.00 202.13,546.40 202.43,546.89 C203.17,548.09 201.12,549.58 197.51,550.44 C195.87,550.84 194.18,551.69 193.78,552.33 C191.63,555.70 194.31,625.03 196.82,631.22 C197.52,632.95 198.95,634.17 200.71,634.57 C206.45,635.84 207.11,636.20 206.79,637.84 C206.51,639.30 204.33,639.53 188.35,639.77 C172.96,640.00 170.14,639.82 169.65,638.54 C169.01,636.87 171.72,635.00 174.78,635.00 C177.30,635.00 179.83,632.10 180.58,628.36 C180.91,626.70 180.70,617.28 180.11,607.42 C179.52,597.56 178.98,584.43 178.90,578.24 C178.83,572.04 178.36,566.73 177.87,566.42 C176.82,565.77 173.54,572.87 163.30,598.00 L 162.25 600.60 C150.34,629.85 146.28,639.81 143.35,639.49 C141.76,639.31 140.50,636.08 138.48,631.25 C136.94,627.54 134.79,622.47 133.72,620.00 C132.64,617.53 131.18,614.15 130.47,612.50 C129.76,610.85 128.07,607.03 126.71,604.00 C123.72,597.31 112.44,570.18 111.64,567.75 C110.76,565.07 109.34,565.67 109.27,568.75 C109.24,570.26 108.73,584.23 108.14,599.78 C107.38,619.95 107.38,628.74 108.15,630.42 C109.33,633.03 112.18,634.76 116.00,635.21 C117.74,635.41 118.50,636.11 118.50,637.50 ZM 552.00 638.00 C552.00,639.92 551.33,640.00 534.61,640.00 C520.61,640.00 517.11,639.73 516.68,638.60 C515.97,636.76 516.82,636.00 519.58,636.00 C520.86,636.00 522.94,634.68 524.41,632.92 L 527.00 629.85 L 527.00 593.17 C526.99,558.38 526.89,556.33 525.01,553.25 C523.48,550.74 522.34,550.00 520.01,550.00 C517.67,550.00 517.00,549.56 517.00,548.00 C517.00,546.08 517.67,546.00 534.57,546.00 C550.62,546.00 552.12,546.15 551.82,547.71 C551.62,548.73 550.14,549.70 548.15,550.10 C546.32,550.48 544.29,551.31 543.66,551.94 C542.90,552.70 542.38,558.96 542.17,570.05 L 541.83 587.00 L 590.00 587.00 L 589.99 573.25 C589.99,559.64 588.98,552.72 586.80,551.38 C586.18,550.99 584.29,550.40 582.59,550.05 C580.82,549.69 579.37,548.70 579.18,547.71 C578.88,546.15 580.41,546.00 596.93,546.00 C612.49,546.00 615.00,546.21 615.00,547.53 C615.00,549.10 614.45,549.41 609.85,550.41 C605.33,551.39 605.00,554.32 605.00,592.90 C605.01,626.72 605.11,628.66 607.00,631.78 C608.30,633.91 610.06,635.26 612.02,635.65 C615.65,636.38 616.45,637.38 614.61,638.91 C613.67,639.69 607.89,639.96 596.38,639.77 C581.25,639.53 579.49,639.32 579.19,637.75 C578.93,636.41 579.53,636.00 581.75,636.00 C583.57,636.00 585.55,635.04 587.08,633.42 C589.43,630.91 589.51,630.34 589.81,612.42 L 590.12 594.00 L 541.88 594.00 L 542.19 612.59 L 542.50 631.18 L 545.31 633.59 C546.85,634.91 548.99,636.00 550.06,636.00 C551.33,636.00 552.00,636.69 552.00,638.00 ZM 244.68 638.48 C244.47,639.09 238.72,639.61 230.29,639.78 C218.67,640.01 216.14,639.80 215.67,638.58 C215.29,637.60 216.32,636.52 218.80,635.31 C223.16,633.18 227.28,626.77 232.06,614.70 C233.85,610.19 236.09,604.70 237.05,602.50 C238.01,600.30 240.23,594.67 241.97,590.00 C243.72,585.33 246.91,577.00 249.06,571.50 C251.21,566.00 254.47,557.67 256.29,553.00 L 259.62 544.50 L 267.37 544.50 L 271.80 556.00 C274.23,562.33 277.72,571.33 279.54,576.00 C282.60,583.82 286.78,594.89 295.02,617.00 C299.53,629.11 301.89,632.90 306.31,635.16 C313.35,638.75 310.79,639.50 291.43,639.50 C275.17,639.50 273.50,639.34 273.19,637.75 C272.93,636.41 273.53,636.00 275.70,636.00 C279.20,636.00 283.01,633.48 282.98,631.19 C282.95,629.56 281.37,624.61 277.15,613.00 L 275.15 607.50 L 242.90 607.50 L 240.62 613.11 C237.32,621.21 235.79,627.25 236.17,630.58 C236.43,632.90 237.37,633.90 240.76,635.48 C243.10,636.57 244.86,637.92 244.68,638.48 ZM 481.00 640.94 C473.34,642.17 457.39,642.15 451.00,640.90 C434.38,637.66 420.15,623.54 415.51,605.70 C410.38,585.96 419.25,563.00 436.40,551.61 C445.10,545.84 452.17,544.00 465.72,544.00 C477.93,544.00 493.20,546.09 495.62,548.10 C497.25,549.45 497.63,569.49 496.04,570.48 C495.51,570.81 493.96,568.87 492.59,566.18 C488.94,558.98 485.82,555.72 479.64,552.70 C474.82,550.34 472.93,550.00 464.55,550.00 C450.87,550.00 445.37,552.78 438.07,563.40 C433.21,570.47 431.00,578.47 431.00,589.04 C431.00,599.34 432.58,606.25 436.89,614.79 C440.64,622.22 444.64,626.91 450.55,630.83 C455.63,634.19 465.86,636.50 472.42,635.76 C481.24,634.77 490.73,627.83 494.72,619.46 C496.64,615.44 500.02,614.66 499.97,618.25 C499.95,619.49 498.72,624.10 497.22,628.50 C494.08,637.73 492.25,639.14 481.00,640.94 ZM 474.90 249.02 C469.73,250.13 464.33,251.30 462.90,251.62 C460.51,252.14 460.13,251.73 457.99,246.34 C452.42,232.33 448.05,225.09 440.10,216.75 L 435.58 212.00 L 438.67 212.00 C442.76,212.00 447.85,214.20 451.44,217.53 C453.91,219.82 454.52,220.01 455.43,218.77 C457.01,216.61 462.96,213.77 464.59,214.40 C465.46,214.73 466.00,216.39 466.01,218.72 C466.01,220.80 466.68,223.78 467.50,225.35 C469.29,228.79 468.81,229.88 465.77,229.30 C462.92,228.76 459.00,232.25 459.00,235.32 C459.00,236.55 459.69,238.54 460.53,239.74 C461.82,241.58 462.48,241.77 464.66,240.94 C484.51,233.39 527.54,232.85 554.81,239.81 C562.09,241.67 562.12,241.67 563.56,239.61 C565.11,237.39 565.42,234.17 564.23,232.40 C563.14,230.77 559.42,229.00 557.07,229.00 C554.58,229.00 554.48,228.18 556.62,225.13 C557.56,223.79 558.21,220.99 558.16,218.52 L 558.08 214.23 L 561.79 215.06 C563.83,215.52 566.50,217.05 567.72,218.46 L 569.93 221.03 L 571.62 218.46 C573.84,215.07 580.00,212.00 584.57,212.00 L 588.23 212.00 L 582.16 218.49 C577.67,223.28 574.75,227.78 570.95,235.74 C568.12,241.66 565.26,247.62 564.59,249.00 C563.14,252.01 562.13,252.02 548.18,249.13 C542.50,247.96 536.12,247.00 534.01,247.00 C531.90,247.00 529.99,246.48 529.78,245.85 C529.21,244.14 493.82,244.05 493.25,245.76 C493.00,246.49 491.08,247.00 488.57,247.00 C486.22,247.00 480.07,247.91 474.90,249.02 ZM 936.81 637.75 C936.51,639.33 934.71,639.53 918.74,639.77 C901.84,640.03 901.00,639.96 901.00,638.13 C901.00,636.74 901.95,636.04 904.47,635.57 C905.91,635.30 907.03,635.11 907.90,634.54 C911.00,632.52 911.00,625.74 910.99,593.76 L 910.98 592.53 C910.98,571.61 910.64,554.00 910.23,553.40 C909.14,551.77 905.42,550.00 903.07,550.00 C901.67,550.00 901.00,549.35 901.00,548.00 C901.00,546.07 901.67,546.00 919.07,546.00 C935.59,546.00 937.12,546.15 936.82,547.71 C936.62,548.74 935.12,549.70 933.04,550.13 C931.73,550.39 930.70,550.57 929.89,551.10 C927.00,552.98 927.00,559.32 927.00,590.30 L 927.00 592.27 L 927.00 630.15 L 929.92 633.08 C931.53,634.68 933.81,636.00 935.00,636.00 C936.51,636.00 937.05,636.52 936.81,637.75 ZM 669.77 637.94 C669.52,639.27 666.91,639.54 651.93,639.77 C642.27,639.92 634.10,639.77 633.76,639.42 C632.64,638.31 634.17,636.00 636.03,636.00 C639.22,636.00 641.04,634.83 642.63,631.75 C643.95,629.20 644.19,623.24 644.24,592.43 C644.31,552.08 644.28,551.91 637.75,550.21 C635.96,549.75 634.36,548.62 634.18,547.69 C633.88,546.16 635.50,546.00 651.76,546.00 C661.61,546.00 669.96,546.30 670.32,546.66 C671.49,547.83 668.89,549.93 665.48,550.57 C659.71,551.65 659.50,553.16 659.50,593.00 C659.50,633.22 659.59,633.77 666.30,635.44 C668.90,636.08 669.98,636.86 669.77,637.94 ZM 519.30 218.80 C517.76,220.29 515.33,223.06 513.89,224.97 L 511.28 228.45 L 509.69 225.37 C507.31,220.77 501.87,216.47 495.34,214.03 C487.85,211.22 487.00,210.45 487.00,206.40 C487.00,201.97 490.37,199.60 495.35,200.54 C499.24,201.27 507.33,207.57 506.68,209.37 C506.20,210.67 509.04,216.00 510.22,216.00 C510.65,216.00 511.00,215.44 510.99,214.75 C510.98,212.89 506.38,203.90 503.83,200.74 C500.38,196.48 501.00,192.52 506.35,184.67 C508.91,180.92 511.00,177.37 511.00,176.80 C511.00,176.16 511.59,176.24 512.50,177.00 C513.33,177.68 514.00,178.62 514.00,179.07 C514.00,179.53 516.03,182.80 518.50,186.34 C520.97,189.88 523.00,193.42 523.00,194.20 C523.00,194.98 521.42,198.23 519.50,201.43 C515.06,208.80 514.87,211.83 519.18,206.60 C520.92,204.48 523.85,202.12 525.68,201.36 C531.31,199.01 536.89,201.60 536.97,206.60 C537.01,209.46 534.53,211.46 527.80,213.98 C524.66,215.15 520.84,217.32 519.30,218.80 ZM 825.76 591.25 C825.96,591.66 829.48,592.00 833.58,592.00 C839.88,592.00 841.64,591.61 844.85,589.48 C850.59,585.68 853.42,579.89 853.39,572.00 C853.33,558.22 844.59,550.26 830.50,551.18 L 825.50 551.50 L 825.45 571.00 C825.42,581.72 825.56,590.84 825.76,591.25 ZM 603.75 747.25 C603.47,748.09 600.50,748.59 594.67,748.79 C587.41,749.03 586.00,748.83 586.00,747.54 C586.00,746.69 586.47,746.00 587.05,746.00 C587.62,746.00 589.20,744.81 590.55,743.35 C592.96,740.75 593.00,740.45 593.00,722.44 C593.00,712.39 592.72,703.44 592.38,702.54 C592.04,701.65 590.46,700.26 588.88,699.44 C584.22,697.03 585.40,695.88 592.21,696.20 L 598.42 696.50 L 613.80 714.00 C622.26,723.62 629.59,731.65 630.09,731.83 C630.61,732.02 631.00,725.45 631.00,716.50 L 631.00 700.83 L 628.00 699.69 C626.35,699.07 625.00,697.99 625.00,697.28 C625.00,696.34 627.26,696.00 633.50,696.00 C642.46,696.00 643.97,696.93 639.12,699.44 C637.47,700.29 635.94,702.09 635.55,703.65 C635.18,705.14 634.97,715.82 635.08,727.38 C635.22,740.74 634.93,748.52 634.29,748.74 C633.74,748.92 632.00,747.38 630.42,745.31 C626.27,739.86 598.79,708.56 597.82,708.17 C597.37,707.98 597.00,715.44 597.00,724.74 C597.00,741.12 597.07,741.72 599.31,743.83 C600.59,745.02 602.20,746.00 602.90,746.00 C603.60,746.00 603.98,746.56 603.75,747.25 ZM 347.67 591.33 C348.77,592.44 360.97,592.08 363.32,590.88 C372.39,586.21 376.47,575.87 373.40,565.29 C370.60,555.60 363.74,551.00 352.13,551.00 L 347.00 551.00 L 347.00 570.83 C347.00,581.74 347.30,590.97 347.67,591.33 ZM 525.75 747.25 C525.26,748.71 510.00,749.54 510.00,748.10 C510.00,747.61 511.50,745.69 513.34,743.85 C515.95,741.24 518.64,735.50 525.59,717.72 C533.12,698.47 534.79,694.99 536.39,695.22 C537.84,695.44 539.40,698.59 543.04,708.69 C549.68,727.08 555.93,742.18 557.76,744.25 C558.61,745.21 559.95,746.00 560.74,746.00 C561.52,746.00 561.98,746.56 561.75,747.25 C561.45,748.13 558.57,748.50 552.00,748.50 C542.66,748.49 539.87,747.41 544.25,745.49 C547.40,744.10 547.48,741.34 544.55,734.72 L 542.03 729.00 L 534.04 729.00 C525.11,729.00 525.08,729.02 522.03,738.72 C520.60,743.25 521.62,746.00 524.71,746.00 C525.51,746.00 525.98,746.56 525.75,747.25 ZM 472.00 748.94 C463.95,750.24 460.91,750.17 454.27,748.56 C447.36,746.89 441.49,742.70 438.19,737.07 C435.80,733.00 435.50,731.51 435.54,723.50 C435.59,713.41 437.27,708.88 443.20,702.95 C450.09,696.07 463.12,693.36 475.50,696.25 L 481.50 697.65 L 481.80 703.47 C482.19,710.86 480.79,712.44 478.64,707.05 C476.30,701.22 472.20,699.01 463.70,699.00 C456.47,699.00 452.89,700.29 449.37,704.15 C439.78,714.70 442.12,734.74 453.96,743.47 C458.55,746.86 468.33,747.10 472.37,743.93 C474.66,742.12 475.00,741.13 474.98,736.18 C474.97,729.84 474.38,728.40 471.58,727.87 C470.53,727.66 469.48,726.94 469.25,726.25 C468.94,725.31 471.09,725.00 477.92,725.00 C486.91,725.00 488.97,725.87 485.00,728.00 C483.26,728.93 483.00,730.09 483.00,737.01 C483.00,746.46 482.24,747.28 472.00,748.94 ZM 274.58 747.75 C273.81,748.52 240.18,748.83 239.42,748.08 C238.49,747.16 239.09,746.00 240.50,746.00 C241.32,746.00 242.90,745.10 244.00,744.00 C245.87,742.13 246.00,740.67 246.00,722.07 L 246.00 702.14 L 242.78 699.63 C241.01,698.24 239.77,696.94 240.03,696.73 C240.29,696.52 248.26,696.55 257.75,696.79 L 275.00 697.23 L 275.18 701.12 C275.28,703.25 275.39,705.97 275.43,707.17 C275.55,710.71 273.17,710.44 272.25,706.82 C271.16,702.52 266.37,700.00 259.25,700.00 L 254.00 700.00 L 254.00 720.00 L 259.35 720.00 C264.66,720.00 268.00,718.14 268.00,715.17 C268.00,714.53 268.69,714.00 269.54,714.00 C270.82,714.00 271.04,715.25 270.79,721.17 C270.48,728.73 269.12,730.76 267.19,726.53 C266.15,724.23 265.49,724.00 260.02,724.00 L 254.00 724.00 L 254.00 732.85 C254.00,743.47 255.06,745.00 262.38,745.00 C268.23,745.00 272.49,742.88 274.51,738.98 C275.36,737.34 276.71,736.00 277.53,736.00 C278.34,736.00 279.00,736.13 279.00,736.29 C279.00,737.27 275.19,747.14 274.58,747.75 ZM 777.39 746.91 C776.38,748.02 772.37,748.34 758.96,748.41 C749.53,748.46 741.60,748.16 741.34,747.75 C741.09,747.33 742.00,746.57 743.38,746.05 C744.75,745.52 746.36,744.20 746.94,743.11 C747.59,741.91 748.00,733.29 748.00,721.04 L 748.00 700.96 L 745.50 699.82 C741.74,698.11 742.20,695.59 746.12,696.38 C747.84,696.72 755.44,697.00 763.01,697.00 L 776.77 697.00 L 777.47 702.61 C778.35,709.63 776.81,711.87 774.65,706.71 C772.43,701.40 769.37,699.84 761.85,700.20 L 755.50 700.50 L 755.50 719.50 L 761.77 719.80 C767.83,720.09 768.09,720.00 769.77,717.06 C770.72,715.38 771.95,714.16 772.50,714.34 C773.46,714.65 773.32,726.64 772.34,728.25 C771.44,729.73 770.13,728.96 769.82,726.75 C769.53,724.71 768.88,724.47 762.75,724.20 L 756.00 723.91 L 756.00 732.90 C756.00,741.05 756.21,742.03 758.22,743.44 C763.40,747.07 773.66,744.38 777.14,738.49 C779.96,733.70 781.58,735.24 779.91,741.13 C779.23,743.53 778.09,746.14 777.39,746.91 ZM 405.70 747.63 C404.93,748.40 371.18,748.85 370.43,748.10 C369.54,747.20 370.05,746.00 371.33,746.00 C372.05,746.00 373.63,744.96 374.83,743.69 C376.91,741.47 377.00,740.52 377.00,721.76 L 377.00 702.14 L 373.78 699.63 C372.01,698.24 370.77,696.95 371.03,696.75 C371.29,696.56 378.98,696.58 388.12,696.80 L 404.75 697.20 L 405.40 702.77 C406.22,709.74 404.90,711.32 402.57,706.15 C400.40,701.34 397.65,700.00 389.95,700.00 L 384.00 700.00 L 384.00 720.00 L 389.85 720.00 C395.68,720.00 399.00,718.25 399.00,715.17 C399.00,714.53 399.69,714.00 400.54,714.00 C401.82,714.00 402.04,715.25 401.79,721.17 C401.62,725.53 401.04,728.49 400.33,728.73 C399.68,728.94 399.01,728.08 398.83,726.81 C398.52,724.67 397.96,724.48 391.25,724.21 L 384.00 723.91 L 384.00 732.46 C384.00,743.06 385.37,745.00 392.85,745.00 C398.46,745.00 403.73,742.03 405.80,737.71 C407.15,734.92 409.03,734.04 408.96,736.25 C408.88,738.42 406.46,746.87 405.70,747.63 ZM 474.50 264.11 C471.75,264.65 468.51,265.30 467.29,265.56 C464.91,266.05 463.00,263.67 463.00,260.20 C463.00,258.75 463.94,258.10 466.75,257.60 C497.67,252.12 522.38,251.85 550.75,256.66 C561.59,258.50 562.67,259.34 559.62,263.51 C558.27,265.35 557.90,265.35 546.87,263.72 C524.15,260.36 492.80,260.53 474.50,264.11 ZM 711.41 746.93 C709.59,748.87 687.12,749.09 682.62,747.20 C678.41,745.44 672.29,739.39 669.77,734.50 C665.17,725.59 668.64,709.03 676.57,702.08 C683.79,695.74 695.86,693.54 708.00,696.36 L 713.50 697.64 L 714.09 703.07 C714.97,711.05 713.55,712.48 710.70,706.49 C708.25,701.35 703.76,699.01 696.37,699.00 C686.21,699.00 681.48,702.14 677.57,711.49 C673.25,721.83 678.58,738.59 687.86,743.80 C692.58,746.45 699.73,746.70 704.63,744.37 C707.84,742.85 710.07,740.62 712.56,736.43 C713.15,735.45 714.13,734.96 714.75,735.34 C716.05,736.15 713.62,744.56 711.41,746.93 ZM 342.45 747.62 C342.13,748.87 307.91,749.58 306.70,748.36 C305.52,747.19 305.92,746.00 307.50,746.00 C308.33,746.00 309.90,745.10 311.00,744.00 C312.87,742.13 313.00,740.67 313.00,721.99 L 313.00 701.97 L 309.93 700.10 C308.24,699.08 307.00,697.88 307.18,697.44 C307.55,696.53 325.80,696.47 326.71,697.38 C327.04,697.70 325.72,698.64 323.78,699.45 C321.67,700.33 320.01,701.84 319.64,703.21 C319.30,704.47 319.02,713.39 319.01,723.03 C319.00,744.45 319.22,745.00 327.91,745.00 C334.98,745.00 340.01,742.12 341.46,737.23 C342.10,735.06 343.04,734.00 344.31,734.00 C345.71,734.00 346.04,734.46 345.54,735.75 C345.17,736.71 344.38,739.53 343.80,742.00 C343.21,744.47 342.60,747.00 342.45,747.62 ZM 247.31 598.83 C248.59,600.43 269.28,600.14 270.90,598.50 C271.55,597.84 271.10,595.47 269.56,591.50 C259.18,564.74 259.13,564.65 257.22,569.71 C256.64,571.25 253.93,578.12 251.20,585.00 C247.49,594.32 246.50,597.84 247.31,598.83 ZM 527.80 724.46 C528.57,725.23 540.00,725.13 540.00,724.35 C540.00,722.82 535.58,711.39 534.55,710.24 C533.67,709.27 532.71,710.70 530.34,716.46 C528.65,720.57 527.50,724.17 527.80,724.46 Z"
            fill="rgb(5,5,5)" />
        <path
            d="M 562.93 285.34 C530.69,280.94 493.95,281.19 461.88,285.83 C469.93,284.56 477.59,283.60 482.50,283.30 C488.00,282.98 492.80,282.24 493.18,281.67 C494.16,280.14 536.28,280.33 536.79,281.86 C537.00,282.49 539.07,283.00 541.40,283.00 C545.03,283.00 554.02,284.04 562.93,285.34 ZM 484.69 247.33 C486.34,247.12 487.71,247.00 488.57,247.00 C491.08,247.00 493.00,246.49 493.25,245.76 C493.82,244.05 529.21,244.14 529.78,245.85 C529.99,246.48 531.90,247.00 534.01,247.00 C534.72,247.00 535.92,247.11 537.40,247.30 C532.04,246.82 524.98,246.75 511.00,246.76 C497.09,246.77 489.95,246.86 484.69,247.33 ZM 709.42 747.94 C704.57,750.33 690.41,750.39 684.57,748.04 C684.07,747.84 683.57,747.61 683.06,747.37 C687.86,748.89 705.32,748.85 710.23,747.47 C709.98,747.64 709.70,747.80 709.42,747.94 ZM 111.64 567.75 C112.44,570.18 123.72,597.31 126.71,604.00 C128.07,607.03 129.76,610.85 130.47,612.50 C129.76,610.85 128.06,607.03 126.70,604.00 C125.35,600.97 121.90,592.88 119.04,586.00 C113.21,572.00 111.21,568.39 109.96,569.64 C109.60,570.00 109.22,574.04 108.88,579.89 C109.10,573.78 109.25,569.55 109.27,568.75 C109.34,565.67 110.76,565.07 111.64,567.75 ZM 508.58 214.36 C508.61,214.43 508.64,214.50 508.67,214.57 C507.52,212.89 506.36,210.24 506.68,209.37 C506.83,208.95 506.50,208.28 505.86,207.50 C507.41,208.77 508.00,208.84 508.00,207.91 C508.00,207.76 507.97,207.59 507.93,207.40 C509.11,209.64 510.15,211.89 510.66,213.37 C510.10,212.37 508.99,211.68 508.41,212.26 C508.16,212.51 508.24,213.45 508.58,214.36 ZM 501.86 196.96 C501.33,195.38 501.19,193.97 501.52,192.93 C501.71,192.33 502.60,190.72 503.82,188.74 C501.97,192.11 501.34,194.66 501.86,196.96 ZM 108.15 630.42 C107.50,629.01 107.40,622.61 107.83,608.71 C107.61,619.85 107.65,629.31 108.15,630.42 ZM 493.97 200.36 C489.75,200.07 487.00,202.39 487.00,206.40 C487.00,201.97 489.99,199.92 493.97,200.36 ZM 505.58 203.28 C505.56,203.26 505.54,203.24 505.53,203.22 C504.64,202.16 503.86,201.05 503.23,199.95 C503.42,200.22 503.61,200.48 503.83,200.74 C504.35,201.38 504.95,202.26 505.58,203.28 ZM 714.75 739.20 C715.19,737.27 715.28,735.67 714.74,735.34 C715.38,735.74 715.40,736.88 714.75,739.20 ZM 675.26 741.73 C673.00,739.52 671.06,737.01 669.77,734.50 C670.98,736.84 673.01,739.45 675.26,741.73 ZM 498.42 201.74 C499.43,202.24 500.45,202.86 501.46,203.62 C500.46,202.92 499.41,202.26 498.42,201.74 ZM 510.99 214.82 C510.97,215.48 510.63,216.00 510.22,216.00 C510.14,216.00 510.06,215.98 509.97,215.94 C510.48,216.05 510.92,215.69 510.99,214.82 ZM 580.34 288.33 C581.36,288.55 582.26,288.76 583.00,288.96 C582.34,288.78 581.41,288.56 580.34,288.33 Z"
            fill="rgb(82,82,82)" />
        <path
            d="M 508.58 214.36 C508.24,213.45 508.16,212.51 508.41,212.26 C508.99,211.68 510.10,212.37 510.66,213.37 C510.87,213.98 510.99,214.45 510.99,214.75 C510.99,214.77 510.99,214.80 510.99,214.82 C510.92,215.69 510.48,216.05 509.97,215.94 C509.60,215.76 509.14,215.25 508.67,214.57 C508.64,214.50 508.61,214.43 508.58,214.36 Z"
            fill="rgb(181,181,181)" />
        <path
            d="M 0.00 512.00 L 0.00 0.00 L 512.00 0.00 L 1024.00 0.00 L 1024.00 512.00 L 1024.00 1024.00 L 512.00 1024.00 L 0.00 1024.00 L 0.00 512.00 ZM 472.00 748.94 C482.24,747.28 483.00,746.46 483.00,737.01 C483.00,730.09 483.26,728.93 485.00,728.00 C488.97,725.87 486.91,725.00 477.92,725.00 C471.09,725.00 468.94,725.31 469.25,726.25 C469.48,726.94 470.53,727.66 471.58,727.87 C474.38,728.40 474.97,729.84 474.98,736.18 C475.00,741.13 474.66,742.12 472.37,743.93 C468.33,747.10 458.55,746.86 453.96,743.47 C442.12,734.74 439.78,714.70 449.37,704.15 C452.89,700.29 456.47,699.00 463.70,699.00 C472.20,699.01 476.30,701.22 478.64,707.05 C480.79,712.44 482.19,710.86 481.80,703.47 L 481.50 697.65 L 475.50 696.25 C463.12,693.36 450.09,696.07 443.20,702.95 C437.27,708.88 435.59,713.41 435.54,723.50 C435.50,731.51 435.80,733.00 438.19,737.07 C441.49,742.70 447.36,746.89 454.27,748.56 C460.91,750.17 463.95,750.24 472.00,748.94 ZM 709.42 747.94 C711.57,746.88 712.80,745.13 714.10,741.27 C715.36,737.52 715.55,735.84 714.74,735.34 C714.13,734.96 713.15,735.45 712.56,736.43 C710.07,740.62 707.84,742.85 704.63,744.37 C699.73,746.70 692.58,746.45 687.86,743.80 C678.58,738.59 673.25,721.83 677.57,711.49 C681.48,702.14 686.21,699.00 696.37,699.00 C703.76,699.01 708.25,701.35 710.70,706.49 C713.55,712.48 714.97,711.05 714.09,703.07 L 713.50 697.64 L 708.00 696.36 C695.86,693.54 683.79,695.74 676.57,702.08 C668.64,709.03 665.17,725.59 669.77,734.50 C672.66,740.12 678.78,745.71 684.57,748.04 C690.41,750.39 704.57,750.33 709.42,747.94 ZM 274.58 747.75 C275.19,747.14 279.00,737.27 279.00,736.29 C279.00,736.13 278.34,736.00 277.53,736.00 C276.71,736.00 275.36,737.34 274.51,738.98 C272.49,742.88 268.23,745.00 262.38,745.00 C255.06,745.00 254.00,743.47 254.00,732.85 L 254.00 724.00 L 260.02 724.00 C265.49,724.00 266.15,724.23 267.19,726.53 C269.12,730.76 270.48,728.73 270.79,721.17 C271.04,715.25 270.82,714.00 269.54,714.00 C268.69,714.00 268.00,714.53 268.00,715.17 C268.00,718.14 264.66,720.00 259.35,720.00 L 254.00 720.00 L 254.00 710.00 L 254.00 700.00 L 259.25 700.00 C266.37,700.00 271.16,702.52 272.25,706.82 C273.17,710.44 275.55,710.71 275.43,707.17 C275.39,705.97 275.28,703.25 275.18,701.12 L 275.00 697.23 L 257.75 696.79 C248.26,696.55 240.29,696.52 240.03,696.73 C239.77,696.94 241.01,698.24 242.78,699.63 L 246.00 702.14 L 246.00 722.07 C246.00,740.67 245.87,742.13 244.00,744.00 C242.90,745.10 241.32,746.00 240.50,746.00 C239.09,746.00 238.49,747.16 239.42,748.08 C240.18,748.83 273.81,748.52 274.58,747.75 ZM 342.45 747.62 C342.60,747.00 343.21,744.47 343.80,742.00 C344.38,739.53 345.17,736.71 345.54,735.75 C346.04,734.46 345.71,734.00 344.31,734.00 C343.04,734.00 342.10,735.06 341.46,737.23 C340.01,742.12 334.98,745.00 327.91,745.00 C319.22,745.00 319.00,744.45 319.01,723.03 C319.02,713.39 319.30,704.47 319.64,703.21 C320.01,701.84 321.67,700.33 323.78,699.45 C325.72,698.64 327.04,697.70 326.71,697.38 C325.80,696.47 307.55,696.53 307.18,697.44 C307.00,697.88 308.24,699.08 309.93,700.10 L 313.00 701.97 L 313.00 721.99 C313.00,740.67 312.87,742.13 311.00,744.00 C309.90,745.10 308.33,746.00 307.50,746.00 C305.92,746.00 305.52,747.19 306.70,748.36 C307.91,749.58 342.13,748.87 342.45,747.62 ZM 405.70 747.63 C406.46,746.87 408.88,738.42 408.96,736.25 C409.03,734.04 407.15,734.92 405.80,737.71 C403.73,742.03 398.46,745.00 392.85,745.00 C385.37,745.00 384.00,743.06 384.00,732.46 L 384.00 723.91 L 391.25 724.21 C397.96,724.48 398.52,724.67 398.83,726.81 C399.01,728.08 399.68,728.94 400.33,728.73 C401.04,728.49 401.62,725.53 401.79,721.17 C402.04,715.25 401.82,714.00 400.54,714.00 C399.69,714.00 399.00,714.53 399.00,715.17 C399.00,718.25 395.68,720.00 389.85,720.00 L 384.00 720.00 L 384.00 710.00 L 384.00 700.00 L 389.95 700.00 C397.65,700.00 400.40,701.34 402.57,706.15 C404.90,711.32 406.22,709.74 405.40,702.77 L 404.75 697.20 L 388.12 696.80 C378.98,696.58 371.29,696.56 371.03,696.75 C370.77,696.95 372.01,698.24 373.78,699.63 L 377.00 702.14 L 377.00 721.76 C377.00,740.52 376.91,741.47 374.83,743.69 C373.63,744.96 372.05,746.00 371.33,746.00 C370.05,746.00 369.54,747.20 370.43,748.10 C371.18,748.85 404.93,748.40 405.70,747.63 ZM 525.75 747.25 C525.98,746.56 525.51,746.00 524.71,746.00 C521.62,746.00 520.60,743.25 522.03,738.72 C525.08,729.02 525.11,729.00 534.04,729.00 L 542.03 729.00 L 544.55 734.72 C547.48,741.34 547.40,744.10 544.25,745.49 C539.87,747.41 542.66,748.49 552.00,748.50 C558.57,748.50 561.45,748.13 561.75,747.25 C561.98,746.56 561.52,746.00 560.74,746.00 C559.95,746.00 558.61,745.21 557.76,744.25 C555.93,742.18 549.68,727.08 543.04,708.69 C539.40,698.59 537.84,695.44 536.39,695.22 C534.79,694.99 533.12,698.47 525.59,717.72 C518.64,735.50 515.95,741.24 513.34,743.85 C511.50,745.69 510.00,747.61 510.00,748.10 C510.00,749.54 525.26,748.71 525.75,747.25 ZM 603.75 747.25 C603.98,746.56 603.60,746.00 602.90,746.00 C602.20,746.00 600.59,745.02 599.31,743.83 C597.07,741.72 597.00,741.12 597.00,724.74 C597.00,715.44 597.37,707.98 597.82,708.17 C598.79,708.56 626.27,739.86 630.42,745.31 C632.00,747.38 633.74,748.92 634.29,748.74 C634.93,748.52 635.22,740.74 635.08,727.38 C634.97,715.82 635.18,705.14 635.55,703.65 C635.94,702.09 637.47,700.29 639.12,699.44 C643.97,696.93 642.46,696.00 633.50,696.00 C627.26,696.00 625.00,696.34 625.00,697.28 C625.00,697.99 626.35,699.07 628.00,699.69 L 631.00 700.83 L 631.00 716.50 C631.00,725.45 630.61,732.02 630.09,731.83 C629.59,731.65 622.26,723.62 613.80,714.00 L 598.42 696.50 L 592.21 696.20 C585.40,695.88 584.22,697.03 588.88,699.44 C590.46,700.26 592.04,701.65 592.38,702.54 C592.72,703.44 593.00,712.39 593.00,722.44 C593.00,740.45 592.96,740.75 590.55,743.35 C589.20,744.81 587.62,746.00 587.05,746.00 C586.47,746.00 586.00,746.69 586.00,747.54 C586.00,748.83 587.41,749.03 594.67,748.79 C600.50,748.59 603.47,748.09 603.75,747.25 ZM 777.39 746.91 C778.09,746.14 779.23,743.53 779.91,741.13 C781.58,735.24 779.96,733.70 777.14,738.49 C773.66,744.38 763.40,747.07 758.22,743.44 C756.21,742.03 756.00,741.05 756.00,732.90 L 756.00 723.91 L 762.75 724.20 C768.88,724.47 769.53,724.71 769.82,726.75 C770.13,728.96 771.44,729.73 772.34,728.25 C773.32,726.64 773.46,714.65 772.50,714.34 C771.95,714.16 770.72,715.38 769.77,717.06 C768.09,720.00 767.83,720.09 761.77,719.80 L 755.50 719.50 L 755.50 710.00 L 755.50 700.50 L 761.85 700.20 C769.37,699.84 772.43,701.40 774.65,706.71 C776.81,711.87 778.35,709.63 777.47,702.61 L 776.77 697.00 L 763.01 697.00 C755.44,697.00 747.84,696.72 746.12,696.38 C742.20,695.59 741.74,698.11 745.50,699.82 L 748.00 700.96 L 748.00 721.04 C748.00,733.29 747.59,741.91 746.94,743.11 C746.36,744.20 744.75,745.52 743.38,746.05 C742.00,746.57 741.09,747.33 741.34,747.75 C741.60,748.16 749.53,748.46 758.96,748.41 C772.37,748.34 776.38,748.02 777.39,746.91 ZM 481.00 640.94 C492.25,639.14 494.08,637.73 497.22,628.50 C498.72,624.10 499.95,619.49 499.97,618.25 C500.02,614.66 496.64,615.44 494.72,619.46 C490.73,627.83 481.24,634.77 472.42,635.76 C465.86,636.50 455.63,634.19 450.55,630.83 C444.64,626.91 440.64,622.22 436.89,614.79 C432.58,606.25 431.00,599.34 431.00,589.04 C431.00,578.47 433.21,570.47 438.07,563.40 C445.37,552.78 450.87,550.00 464.55,550.00 C472.93,550.00 474.82,550.34 479.64,552.70 C485.82,555.72 488.94,558.98 492.59,566.18 C493.96,568.87 495.51,570.81 496.04,570.48 C497.63,569.49 497.25,549.45 495.62,548.10 C493.20,546.09 477.93,544.00 465.72,544.00 C452.17,544.00 445.10,545.84 436.40,551.61 C419.25,563.00 410.38,585.96 415.51,605.70 C420.15,623.54 434.38,637.66 451.00,640.90 C457.39,642.15 473.34,642.17 481.00,640.94 ZM 746.11 640.99 C754.21,639.46 761.78,635.33 768.85,628.57 C778.85,619.02 782.97,609.06 782.99,594.39 C783.00,583.30 781.63,576.77 777.49,568.34 C773.68,560.56 766.30,552.94 759.39,549.64 C757.25,548.62 754.80,547.43 753.95,547.01 C749.81,544.94 740.53,543.79 730.93,544.15 C721.45,544.50 719.82,544.86 713.00,548.12 C702.21,553.27 696.22,559.08 691.65,568.82 C687.21,578.27 685.56,587.41 686.28,598.50 C687.16,612.04 692.39,622.98 701.62,630.55 C707.75,635.58 709.92,636.74 718.50,639.59 C726.26,642.16 736.98,642.71 746.11,640.99 ZM 406.60 639.91 C408.90,638.01 408.25,636.00 405.34,636.00 C401.38,636.00 396.61,631.81 390.22,622.71 C383.86,613.65 373.00,596.16 373.00,594.98 C373.00,594.56 374.07,593.95 375.38,593.62 C376.69,593.29 380.02,590.99 382.79,588.50 C395.25,577.30 393.10,558.12 378.50,550.20 C371.37,546.33 368.90,546.03 344.25,546.02 C323.13,546.00 320.00,546.20 320.00,547.53 C320.00,549.11 320.54,549.40 325.24,550.43 C331.22,551.74 331.32,552.43 331.11,592.80 C330.91,633.75 330.99,633.28 323.91,635.63 C322.03,636.25 320.50,637.38 320.50,638.13 C320.50,639.23 324.11,639.55 338.77,639.77 C354.87,640.01 357.12,639.85 357.67,638.42 C358.39,636.54 356.47,635.04 353.32,635.02 C352.06,635.01 350.26,633.77 349.07,632.10 C347.20,629.47 347.00,627.75 347.00,614.10 L 347.00 599.00 L 349.92 599.00 C351.52,599.00 353.50,598.74 354.32,598.43 C356.45,597.61 358.71,600.45 365.78,612.85 C378.98,635.99 383.88,640.26 397.85,640.79 C402.37,640.97 405.74,640.63 406.60,639.91 ZM 886.13 639.93 C888.72,638.55 887.17,636.48 882.89,635.63 C881.21,635.29 878.52,634.08 876.91,632.93 C874.36,631.12 859.32,609.43 853.25,598.81 L 851.14 595.11 L 856.38 592.16 C866.62,586.37 870.71,578.88 869.70,567.69 C868.89,558.63 863.88,552.79 853.17,548.38 C847.77,546.16 846.33,546.05 823.18,546.02 C800.76,546.00 798.88,546.13 799.18,547.71 C799.38,548.72 800.85,549.69 802.80,550.09 C804.60,550.46 806.98,551.58 808.07,552.57 C810.01,554.32 810.06,555.50 809.78,592.58 C809.47,635.27 809.67,634.09 802.37,635.46 C799.81,635.94 798.96,636.57 799.20,637.81 C799.49,639.32 801.44,639.50 818.00,639.50 C834.70,639.50 836.50,639.33 836.81,637.77 C837.06,636.44 836.20,635.90 833.03,635.39 C826.49,634.34 826.00,632.91 826.00,614.91 L 826.00 599.26 L 830.12 598.71 C832.39,598.41 834.82,598.38 835.51,598.64 C836.21,598.91 838.74,602.70 841.14,607.07 C853.25,629.13 860.82,638.04 869.12,640.00 C874.16,641.19 883.85,641.15 886.13,639.93 ZM 118.50 637.50 C118.50,636.11 117.74,635.41 116.00,635.21 C112.18,634.76 109.33,633.03 108.15,630.42 C106.88,627.65 108.57,571.04 109.96,569.64 C111.21,568.39 113.21,572.00 119.04,586.00 C121.90,592.88 125.35,600.97 126.70,604.00 C128.06,607.03 129.76,610.85 130.47,612.50 C131.18,614.15 132.64,617.53 133.72,620.00 C134.79,622.47 136.94,627.54 138.48,631.25 C144.30,645.19 143.83,645.83 163.30,598.00 C173.54,572.87 176.82,565.77 177.87,566.42 C178.36,566.73 178.83,572.04 178.90,578.24 C178.98,584.43 179.52,597.56 180.11,607.42 C180.70,617.28 180.91,626.70 180.58,628.36 C179.83,632.10 177.30,635.00 174.78,635.00 C171.72,635.00 169.01,636.87 169.65,638.54 C170.14,639.82 172.96,640.00 188.35,639.77 C204.33,639.53 206.51,639.30 206.79,637.84 C207.11,636.20 206.45,635.84 200.71,634.57 C198.95,634.17 197.52,632.95 196.82,631.22 C194.31,625.03 191.63,555.70 193.78,552.33 C194.18,551.69 195.87,550.84 197.51,550.44 C201.12,549.58 203.17,548.09 202.43,546.89 C202.13,546.40 196.36,546.00 189.60,546.00 L 177.32 546.00 L 176.05 548.75 C174.78,551.51 168.31,567.57 165.07,576.00 C164.12,578.47 161.65,584.55 159.59,589.50 C157.52,594.45 155.49,599.40 155.07,600.50 C152.84,606.33 148.83,614.16 148.33,613.66 C148.01,613.34 146.29,609.58 144.50,605.29 C140.67,596.10 130.74,573.00 123.94,557.50 L 119.12 546.50 L 105.56 546.22 C92.61,545.96 92.00,546.03 92.00,547.93 C92.00,549.41 92.90,550.08 95.56,550.58 C101.89,551.76 102.40,553.66 101.63,573.30 C100.77,595.64 99.01,625.88 98.42,628.78 C97.76,631.98 94.44,635.00 91.58,635.00 C89.09,635.00 87.94,636.54 88.76,638.78 C89.12,639.75 92.71,639.99 103.87,639.78 C117.74,639.51 118.50,639.40 118.50,637.50 ZM 244.68 638.48 C244.86,637.92 243.10,636.57 240.76,635.48 C237.37,633.90 236.43,632.90 236.17,630.58 C235.79,627.25 237.32,621.21 240.62,613.11 L 242.90 607.50 L 259.03 607.50 L 275.15 607.50 L 277.15 613.00 C281.37,624.61 282.95,629.56 282.98,631.19 C283.01,633.48 279.20,636.00 275.70,636.00 C273.53,636.00 272.93,636.41 273.19,637.75 C273.50,639.34 275.17,639.50 291.43,639.50 C310.79,639.50 313.35,638.75 306.31,635.16 C301.89,632.90 299.53,629.11 295.02,617.00 C286.78,594.89 282.60,583.82 279.54,576.00 C277.72,571.33 274.23,562.33 271.80,556.00 L 267.37 544.50 L 263.49 544.50 L 259.62 544.50 L 256.29 553.00 C254.47,557.67 251.21,566.00 249.06,571.50 C246.91,577.00 243.72,585.33 241.97,590.00 C240.23,594.67 238.01,600.30 237.05,602.50 C236.09,604.70 233.85,610.19 232.06,614.70 C227.28,626.77 223.16,633.18 218.80,635.31 C216.32,636.52 215.29,637.60 215.67,638.58 C216.14,639.80 218.67,640.01 230.29,639.78 C238.72,639.61 244.47,639.09 244.68,638.48 ZM 552.00 638.00 C552.00,636.69 551.33,636.00 550.06,636.00 C548.99,636.00 546.85,634.91 545.31,633.59 L 542.50 631.18 L 542.19 612.59 L 541.88 594.00 L 566.00 594.00 L 590.12 594.00 L 589.81 612.42 C589.51,630.34 589.43,630.91 587.08,633.42 C585.55,635.04 583.57,636.00 581.75,636.00 C579.53,636.00 578.93,636.41 579.19,637.75 C579.49,639.32 581.25,639.53 596.38,639.77 C607.89,639.96 613.67,639.69 614.61,638.91 C616.45,637.38 615.65,636.38 612.02,635.65 C610.06,635.26 608.30,633.91 607.00,631.78 C605.11,628.66 605.01,626.72 605.00,592.90 C605.00,554.32 605.33,551.39 609.85,550.41 C614.45,549.41 615.00,549.10 615.00,547.53 C615.00,546.21 612.49,546.00 596.93,546.00 C580.41,546.00 578.88,546.15 579.18,547.71 C579.37,548.70 580.82,549.69 582.59,550.05 C584.29,550.40 586.18,550.99 586.80,551.38 C588.98,552.72 589.99,559.64 589.99,573.25 L 590.00 587.00 L 565.92 587.00 L 541.83 587.00 L 542.17 570.05 C542.38,558.96 542.90,552.70 543.66,551.94 C544.29,551.31 546.32,550.48 548.15,550.10 C550.14,549.70 551.62,548.73 551.82,547.71 C552.12,546.15 550.62,546.00 534.57,546.00 C517.67,546.00 517.00,546.08 517.00,548.00 C517.00,549.56 517.67,550.00 520.01,550.00 C522.34,550.00 523.48,550.74 525.01,553.25 C526.89,556.33 526.99,558.38 527.00,593.17 L 527.00 629.85 L 524.41 632.92 C522.94,634.68 520.86,636.00 519.58,636.00 C516.82,636.00 515.97,636.76 516.68,638.60 C517.11,639.73 520.61,640.00 534.61,640.00 C551.33,640.00 552.00,639.92 552.00,638.00 ZM 669.77 637.94 C669.98,636.86 668.90,636.08 666.30,635.44 C659.59,633.77 659.50,633.22 659.50,593.00 C659.50,553.16 659.71,551.65 665.48,550.57 C668.89,549.93 671.49,547.83 670.32,546.66 C669.96,546.30 661.61,546.00 651.76,546.00 C635.50,546.00 633.88,546.16 634.18,547.69 C634.36,548.62 635.96,549.75 637.75,550.21 C644.28,551.91 644.31,552.08 644.24,592.43 C644.19,623.24 643.95,629.20 642.63,631.75 C641.04,634.83 639.22,636.00 636.03,636.00 C634.17,636.00 632.64,638.31 633.76,639.42 C634.10,639.77 642.27,639.92 651.93,639.77 C666.91,639.54 669.52,639.27 669.77,637.94 ZM 936.81 637.75 C937.05,636.52 936.51,636.00 935.00,636.00 C933.81,636.00 931.53,634.68 929.92,633.08 L 927.00 630.15 L 927.00 592.27 C927.00,550.68 926.90,551.38 933.04,550.13 C935.12,549.70 936.62,548.74 936.82,547.71 C937.12,546.15 935.59,546.00 919.07,546.00 C901.67,546.00 901.00,546.07 901.00,548.00 C901.00,549.35 901.67,550.00 903.07,550.00 C905.42,550.00 909.14,551.77 910.23,553.40 C910.64,554.00 910.98,571.61 910.98,592.53 C911.00,634.77 911.07,634.33 904.47,635.57 C901.95,636.04 901.00,636.74 901.00,638.13 C901.00,639.96 901.84,640.03 918.74,639.77 C934.71,639.53 936.51,639.33 936.81,637.75 ZM 515.22 488.14 C562.87,461.15 584.61,443.87 595.69,424.19 C597.64,420.72 600.41,414.64 601.84,410.69 L 604.45 403.50 L 604.78 344.30 L 605.12 285.11 L 601.25 284.07 C580.53,278.49 556.20,274.59 531.89,272.94 C500.69,270.83 461.71,274.74 426.19,283.54 L 418.88 285.36 L 419.26 343.43 C419.68,408.63 419.32,405.22 427.47,421.67 C436.80,440.51 457.55,458.33 497.46,481.74 C505.18,486.27 511.60,489.98 511.72,489.99 C511.84,489.99 513.42,489.16 515.22,488.14 ZM 474.50 264.11 C492.80,260.53 524.15,260.36 546.87,263.72 C557.90,265.35 558.27,265.35 559.62,263.51 C562.67,259.34 561.59,258.50 550.75,256.66 C522.38,251.85 497.67,252.12 466.75,257.60 C463.94,258.10 463.00,258.75 463.00,260.20 C463.00,263.67 464.91,266.05 467.29,265.56 C468.51,265.30 471.75,264.65 474.50,264.11 ZM 475.00 248.91 C483.38,247.03 487.62,246.77 511.00,246.76 C534.81,246.74 538.57,246.97 548.00,249.00 C562.05,252.03 563.13,252.03 564.59,249.00 C565.26,247.62 568.12,241.66 570.95,235.74 C574.75,227.78 577.67,223.28 582.16,218.49 L 588.23 212.00 L 584.57 212.00 C580.00,212.00 573.84,215.07 571.62,218.46 L 569.93 221.03 L 567.72 218.46 C566.50,217.05 563.83,215.52 561.79,215.06 L 558.08 214.23 L 558.16 218.52 C558.21,220.99 557.56,223.79 556.62,225.13 C554.48,228.18 554.58,229.00 557.07,229.00 C559.42,229.00 563.14,230.77 564.23,232.40 C565.42,234.17 565.11,237.39 563.56,239.61 C562.12,241.67 562.09,241.67 554.81,239.81 C527.54,232.85 484.51,233.39 464.66,240.94 C462.48,241.77 461.82,241.58 460.53,239.74 C459.69,238.54 459.00,236.55 459.00,235.32 C459.00,232.25 462.92,228.76 465.77,229.30 C468.81,229.88 469.29,228.79 467.50,225.35 C466.68,223.78 466.01,220.80 466.01,218.72 C466.00,216.39 465.46,214.73 464.59,214.40 C462.96,213.77 457.01,216.61 455.43,218.77 C454.52,220.01 453.91,219.82 451.44,217.53 C447.85,214.20 442.76,212.00 438.67,212.00 L 435.58 212.00 L 440.10 216.75 C448.05,225.09 452.42,232.33 457.99,246.34 C460.13,251.73 460.51,252.14 462.90,251.62 C464.33,251.30 469.77,250.08 475.00,248.91 ZM 519.30 218.80 C520.84,217.32 524.66,215.15 527.80,213.98 C534.53,211.46 537.01,209.46 536.97,206.60 C536.89,201.60 531.31,199.01 525.68,201.36 C523.85,202.12 520.92,204.48 519.18,206.60 C514.87,211.83 515.06,208.80 519.50,201.43 C521.42,198.23 523.00,194.98 523.00,194.20 C523.00,193.42 520.97,189.88 518.50,186.34 C516.03,182.80 514.00,179.53 514.00,179.07 C514.00,178.62 513.33,177.68 512.50,177.00 C511.59,176.24 511.00,176.16 511.00,176.80 C511.00,177.37 509.00,180.83 506.55,184.48 C504.10,188.13 501.84,191.93 501.52,192.93 C500.78,195.28 502.43,199.54 505.53,203.22 C506.89,204.83 508.00,206.94 508.00,207.91 C508.00,209.20 506.86,208.57 503.62,205.46 C496.03,198.19 487.00,198.70 487.00,206.40 C487.00,210.45 487.85,211.22 495.34,214.03 C501.87,216.47 507.31,220.77 509.69,225.37 L 511.28 228.45 L 513.89 224.97 C515.33,223.06 517.76,220.29 519.30,218.80 ZM 527.80 724.46 C527.50,724.17 528.65,720.57 530.34,716.46 C532.71,710.70 533.67,709.27 534.55,710.24 C535.58,711.39 540.00,722.82 540.00,724.35 C540.00,725.13 528.57,725.23 527.80,724.46 ZM 728.98 635.71 C717.69,631.84 709.04,621.17 704.54,605.55 C702.42,598.18 702.28,584.62 704.26,576.50 C706.00,569.30 710.91,559.32 714.15,556.35 C719.76,551.24 723.14,550.01 731.62,550.00 C744.86,550.00 752.13,554.22 758.91,565.85 C764.28,575.08 766.33,584.41 765.81,597.27 C765.07,615.33 759.69,626.75 748.65,633.72 C743.95,636.69 734.60,637.63 728.98,635.71 ZM 347.67 591.33 C347.30,590.97 347.00,581.74 347.00,570.83 L 347.00 551.00 L 352.13 551.00 C363.74,551.00 370.60,555.60 373.40,565.29 C376.47,575.87 372.39,586.21 363.32,590.88 C360.97,592.08 348.77,592.44 347.67,591.33 ZM 825.76 591.25 C825.56,590.84 825.42,581.72 825.45,571.00 L 825.50 551.50 L 830.50 551.18 C844.59,550.26 853.33,558.22 853.39,572.00 C853.42,579.89 850.59,585.68 844.85,589.48 C841.64,591.61 839.88,592.00 833.58,592.00 C829.48,592.00 825.96,591.66 825.76,591.25 ZM 247.31 598.83 C246.50,597.84 247.49,594.32 251.20,585.00 C253.93,578.12 256.64,571.25 257.22,569.71 C259.13,564.65 259.18,564.74 269.56,591.50 C271.10,595.47 271.55,597.84 270.90,598.50 C269.28,600.14 248.59,600.43 247.31,598.83 ZM 501.00 473.87 C485.08,464.66 466.48,451.92 457.02,443.76 C443.26,431.89 435.33,420.87 430.79,407.34 C428.52,400.55 428.50,400.14 428.50,346.59 L 428.50 292.67 L 436.00 290.81 C476.00,280.91 530.11,279.40 573.50,286.98 C576.80,287.55 581.08,288.45 583.00,288.96 C584.92,289.47 588.66,290.47 591.30,291.18 L 596.09 292.46 L 595.78 347.48 L 595.47 402.50 L 592.84 409.73 C589.24,419.63 586.30,424.36 578.44,432.84 C570.42,441.50 561.37,448.96 546.50,459.17 C537.66,465.24 512.84,480.10 511.76,479.97 C511.62,479.95 506.77,477.21 501.00,473.87 ZM 480.96 413.54 C482.70,411.45 481.64,410.40 476.45,409.09 C468.84,407.18 468.55,405.67 469.89,374.51 C470.50,360.20 471.00,345.82 471.00,342.54 C471.00,337.44 471.20,336.78 472.37,338.04 C473.52,339.26 490.67,377.36 503.09,406.25 C506.42,414.01 508.38,415.65 510.82,412.72 C511.40,412.02 514.41,405.38 517.50,397.97 C520.59,390.56 523.73,383.15 524.47,381.50 C525.22,379.85 528.50,371.98 531.77,364.00 C542.37,338.12 544.30,333.90 545.14,334.74 C545.92,335.52 548.52,390.55 548.21,399.90 C548.04,405.21 545.21,408.68 540.29,409.61 C537.55,410.12 536.95,410.65 537.20,412.37 C537.49,414.46 537.89,414.50 556.00,414.50 C574.42,414.50 574.50,414.49 574.82,412.25 C575.08,410.45 574.66,410.00 572.70,410.00 C569.35,410.00 565.38,406.64 564.69,403.22 C564.38,401.65 563.58,383.47 562.92,362.81 C561.57,320.94 561.47,321.75 568.22,319.56 C570.01,318.98 571.63,317.71 571.81,316.75 C572.12,315.15 570.94,315.00 558.04,315.00 C545.51,315.00 543.87,315.19 543.33,316.75 C541.25,322.69 514.83,384.39 513.95,385.37 C513.15,386.25 511.14,382.24 504.71,367.00 C483.40,316.42 482.83,315.13 481.57,314.74 C480.98,314.55 474.31,314.58 466.75,314.80 C454.47,315.15 453.00,315.38 453.00,316.95 C453.00,318.06 454.46,319.27 457.02,320.28 C462.43,322.40 464.43,327.02 463.59,335.45 C463.25,338.78 462.54,351.62 461.99,364.00 C460.35,401.22 460.13,403.02 456.92,406.23 C455.33,407.82 453.06,409.00 451.58,409.00 C449.38,409.00 449.00,409.44 449.00,412.00 L 449.00 415.00 L 464.38 415.00 C476.62,415.00 480.00,414.70 480.96,413.54 Z"
            fill="rgb(254,254,254)" />
    </g>
</svg>